# xmcd
#
# Track frame offsets: 
#        150
#        11587
#        29880
#        44542
#        60295
#        77835
#        90217
#        110045
#        127752
#        146682
#        162597
#        174695
#        191209
#        209537
#        231490
#
# Disc length: 3257 seconds
#
# Revision: 0
# Processed by: cddbd v1.5.2PL0 Copyright (c) Steve Scherf et al.
# Submitted via: ExactAudioCopy v0.99pb5
#
DISCID=d70cb70f
DTITLE=Lynda Jamison - You And The Night And The Music
DYEAR=1998
DGENRE=Jazz
TTITLE0=You And The Night And The Music
TTITLE1=It Had To Be You
TTITLE2=Like Young
TTITLE3=I Have A Feeling
TTITLE4=A Nightingale Sang In Barkeley Square
TTITLE5=It's All Right With Me
TTITLE6=I'm Gonna Laugh You Out Of My Life
TTITLE7=Too Close To Comfort
TTITLE8=Invitation
TTITLE9=I'm The Girl
TTITLE10=Let's Call The Whole Thing Off
TTITLE11=The Swing Song
TTITLE12=Too Darn Hot - Fever
TTITLE13=Embraceable You
TTITLE14=The Best Is Yet To Come
EXTD=
EXTT0=
EXTT1=
EXTT2=
EXTT3=
EXTT4=
EXTT5=
EXTT6=
EXTT7=
EXTT8=
EXTT9=
EXTT10=
EXTT11=
EXTT12=
EXTT13=
EXTT14=
PLAYORDER=
